{
  "accessors": [
    {
      "bufferView": 2,
      "componentType": 5126,
      "count": 9002,
      "max": [
        113.9094009399414,
        98.55359649658203,
        98.5530776977539
      ],
      "min": [
        -99.74472045898438,
        -98.55359649658203,
        -98.5530776977539
      ],
      "type": "VEC3"
    },
    {
      "bufferView": 2,
      "byteOffset": 108024,
      "componentType": 5126,
      "count": 9002,
      "max": [
        0.9998237490653992,
        1.0,
        1.0
      ],
      "min": [
        -1.0,
        -1.0,
        -1.0
      ],
      "type": "VEC3"
    },
    {
      "bufferView": 3,
      "componentType": 5126,
      "count": 9002,
      "max": [
        0.9999596476554871,
        0.9996543526649475,
        0.999911367893219,
        1.0
      ],
      "min": [
        -0.9999620318412781,
        -0.7424116134643555,
        -0.9991901516914368,
        1.0
      ],
      "type": "VEC4"
    },
    {
      "bufferView": 3,
      "byteOffset": 144032,
      "componentType": 5126,
      "count": 9002,
      "max": [
        1.0,
        1.0,
        1.0,
        1.0
      ],
      "min": [
        0.9960784316062927,
        0.9960784316062927,
        0.9960784316062927,
        1.0
      ],
      "type": "VEC4"
    },
    {
      "bufferView": 1,
      "componentType": 5126,
      "count": 9002,
      "max": [
        0.9980468153953552,
        0.997914731502533
      ],
      "min": [
        0.001953125,
        0.001953125
      ],
      "type": "VEC2"
    },
    {
      "bufferView": 0,
      "componentType": 5125,
      "count": 53280,
      "type": "SCALAR"
    },
    {
      "bufferView": 2,
      "byteOffset": 216048,
      "componentType": 5126,
      "count": 9002,
      "max": [
        112.78462982177734,
        97.50563049316406,
        97.50511169433594
      ],
      "min": [
        -98.59757995605469,
        -97.50563049316406,
        -97.50511169433594
      ],
      "type": "VEC3"
    },
    {
      "bufferView": 2,
      "byteOffset": 324072,
      "componentType": 5126,
      "count": 9002,
      "max": [
        0.999823808670044,
        1.0,
        1.0
      ],
      "min": [
        -1.0,
        -1.0,
        -1.0
      ],
      "type": "VEC3"
    },
    {
      "bufferView": 3,
      "byteOffset": 288064,
      "componentType": 5126,
      "count": 9002,
      "max": [
        0.9999597072601318,
        0.9996541738510132,
        0.999911367893219,
        1.0
      ],
      "min": [
        -0.9999620914459229,
        -0.7424136400222778,
        -0.9991907477378845,
        1.0
      ],
      "type": "VEC4"
    },
    {
      "bufferView": 3,
      "byteOffset": 432096,
      "componentType": 5126,
      "count": 9002,
      "max": [
        1.0,
        1.0,
        1.0,
        1.0
      ],
      "min": [
        0.9960784316062927,
        0.9960784316062927,
        0.9960784316062927,
        1.0
      ],
      "type": "VEC4"
    },
    {
      "bufferView": 1,
      "byteOffset": 72016,
      "componentType": 5126,
      "count": 9002,
      "max": [
        0.9980468153953552,
        0.997914731502533
      ],
      "min": [
        0.001953125,
        0.001953125
      ],
      "type": "VEC2"
    },
    {
      "bufferView": 0,
      "byteOffset": 213120,
      "componentType": 5125,
      "count": 53280,
      "type": "SCALAR"
    }
  ],
  "asset": {
    "extras": {
      "author": "OSCAR CREATIVO (https://sketchfab.com/oscar_creativo)",
      "license": "CC-BY-4.0 (http://creativecommons.org/licenses/by/4.0/)",
      "source": "https://sketchfab.com/3d-models/eye-free-model-3d-by-oscar-creativo-5d466ea41c874fc5b376c92a313a9bb3",
      "title": "EYE FREE MODEL 3D BY Oscar creativo"
    },
    "generator": "Sketchfab-12.66.0",
    "version": "2.0"
  },
  "bufferViews": [
    {
      "buffer": 0,
      "byteLength": 426240,
      "name": "floatBufferViews",
      "target": 34963
    },
    {
      "buffer": 0,
      "byteLength": 144032,
      "byteOffset": 426240,
      "byteStride": 8,
      "name": "floatBufferViews",
      "target": 34962
    },
    {
      "buffer": 0,
      "byteLength": 432096,
      "byteOffset": 570272,
      "byteStride": 12,
      "name": "floatBufferViews",
      "target": 34962
    },
    {
      "buffer": 0,
      "byteLength": 576128,
      "byteOffset": 1002368,
      "byteStride": 16,
      "name": "floatBufferViews",
      "target": 34962
    }
  ],
  "buffers": [
    {
      "byteLength": 1578496,
      "uri": "scene.bin"
    }
  ],
  "extensionsUsed": [
    "KHR_materials_transmission"
  ],
  "images": [
    {
      "uri": "textures/CORNEA_normal.png"
    },
    {
      "uri": "textures/IRIS_FINAL_baseColor.jpeg"
    },
    {
      "uri": "textures/IRIS_FINAL_metallicRoughness.png"
    },
    {
      "uri": "textures/IRIS_FINAL_normal.jpeg"
    }
  ],
  "materials": [
    {
      "alphaMode": "BLEND",
      "doubleSided": true,
      "extensions": {
        "KHR_materials_transmission": {
          "transmissionFactor": 1.0
        }
      },
      "name": "CORNEA",
      "normalTexture": {
        "index": 0
      },
      "pbrMetallicRoughness": {
        "baseColorFactor": [
          0.0,
          0.0,
          0.0,
          0.25
        ],
        "metallicFactor": 0.0,
        "roughnessFactor": 0.0
      }
    },
    {
      "doubleSided": true,
      "name": "IRIS_FINAL",
      "normalTexture": {
        "index": 3,
        "scale": 0.00779022186551873
      },
      "pbrMetallicRoughness": {
        "baseColorTexture": {
          "index": 1
        },
        "metallicFactor": 0.0,
        "metallicRoughnessTexture": {
          "index": 2
        },
        "roughnessFactor": 0.6097273650353562
      }
    }
  ],
  "meshes": [
    {
      "name": "CORNEA__CORNEA__0",
      "primitives": [
        {
          "attributes": {
            "COLOR_0": 3,
            "NORMAL": 1,
            "POSITION": 0,
            "TANGENT": 2,
            "TEXCOORD_0": 4
          },
          "indices": 5,
          "material": 0,
          "mode": 4
        }
      ]
    },
    {
      "name": "IRIS_FINAL_IRIS_FINAL_0",
      "primitives": [
        {
          "attributes": {
            "COLOR_0": 9,
            "NORMAL": 7,
            "POSITION": 6,
            "TANGENT": 8,
            "TEXCOORD_0": 10
          },
          "indices": 11,
          "material": 1,
          "mode": 4
        }
      ]
    }
  ],
  "nodes": [
    {
      "children": [
        1
      ],
      "matrix": [
        1.0,
        0.0,
        0.0,
        0.0,
        0.0,
        2.220446049250313e-16,
        -1.0,
        0.0,
        0.0,
        1.0,
        2.220446049250313e-16,
        0.0,
        0.0,
        0.0,
        0.0,
        1.0
      ],
      "name": "Sketchfab_model"
    },
    {
      "children": [
        2
      ],
      "matrix": [
        1.0,
        0.0,
        0.0,
        0.0,
        0.0,
        0.0,
        1.0,
        0.0,
        0.0,
        -1.0,
        0.0,
        0.0,
        0.0,
        0.0,
        0.0,
        1.0
      ],
      "name": "22ec5c9939344a4f937fbad873d26bed.fbx"
    },
    {
      "children": [
        3,
        5
      ],
      "name": "RootNode"
    },
    {
      "children": [
        4
      ],
      "name": "CORNEA_"
    },
    {
      "mesh": 0,
      "name": "CORNEA__CORNEA__0"
    },
    {
      "children": [
        6
      ],
      "name": "IRIS_FINAL"
    },
    {
      "mesh": 1,
      "name": "IRIS_FINAL_IRIS_FINAL_0"
    }
  ],
  "samplers": [
    {
      "magFilter": 9729,
      "minFilter": 9987,
      "wrapS": 10497,
      "wrapT": 10497
    }
  ],
  "scene": 0,
  "scenes": [
    {
      "name": "Sketchfab_Scene",
      "nodes": [
        0
      ]
    }
  ],
  "textures": [
    {
      "sampler": 0,
      "source": 0
    },
    {
      "sampler": 0,
      "source": 1
    },
    {
      "sampler": 0,
      "source": 2
    },
    {
      "sampler": 0,
      "source": 3
    }
  ]
}
